<svg xmlns="http://www.w3.org/2000/svg" viewBox="0 0 64 64" fill="none">
  <!-- Raccoon face with mask -->
  
  <!-- Ears -->
  <ellipse cx="18" cy="20" rx="8" ry="10" fill="#8B7355"/>
  <ellipse cx="46" cy="20" rx="8" ry="10" fill="#8B7355"/>
  <ellipse cx="18" cy="21" rx="5" ry="7" fill="#D4A574"/>
  <ellipse cx="46" cy="21" rx="5" ry="7" fill="#D4A574"/>
  
  <!-- Head -->
  <circle cx="32" cy="32" r="20" fill="#8B7355"/>
  
  <!-- Face fur -->
  <ellipse cx="32" cy="36" rx="16" ry="14" fill="#D4A574"/>
  
  <!-- Iconic black mask -->
  <ellipse cx="23" cy="28" rx="7" ry="5" fill="#2C2C2C"/>
  <ellipse cx="41" cy="28" rx="7" ry="5" fill="#2C2C2C"/>
  <rect x="22" y="26" width="20" height="6" fill="#2C2C2C" rx="2"/>
  
  <!-- White eye patches in mask -->
  <ellipse cx="23" cy="28" rx="4" ry="3.5" fill="#F5F5F5"/>
  <ellipse cx="41" cy="28" rx="4" ry="3.5" fill="#F5F5F5"/>
  
  <!-- Eyes -->
  <circle cx="23" cy="28" r="2.5" fill="#1C1C1C"/>
  <circle cx="41" cy="28" r="2.5" fill="#1C1C1C"/>
  <circle cx="24" cy="27" r="1" fill="#FFFFFF"/>
  <circle cx="42" cy="27" r="1" fill="#FFFFFF"/>
  
  <!-- Nose -->
  <ellipse cx="32" cy="38" rx="3" ry="2.5" fill="#1C1C1C"/>
  
  <!-- Mouth -->
  <path d="M 32 38 Q 28 42 26 40" stroke="#1C1C1C" stroke-width="1.5" fill="none" stroke-linecap="round"/>
  <path d="M 32 38 Q 36 42 38 40" stroke="#1C1C1C" stroke-width="1.5" fill="none" stroke-linecap="round"/>
  
  <!-- Whisker dots -->
  <circle cx="20" cy="36" r="1" fill="#1C1C1C"/>
  <circle cx="44" cy="36" r="1" fill="#1C1C1C"/>
  <circle cx="18" cy="38" r="1" fill="#1C1C1C"/>
  <circle cx="46" cy="38" r="1" fill="#1C1C1C"/>
</svg>

